<svg width="248" height="403" viewBox="0 0 248 403" fill="none" xmlns="http://www.w3.org/2000/svg">
<path d="M230.078 145.858C225.735 145.877 221.96 146.771 218.8 148.092C217.64 146.13 216.48 144.382 216.276 143.099C216.048 141.603 215.776 140.69 216.048 138.902C216.321 137.115 217.549 134.57 217.526 134.375C217.504 134.181 217.253 133.268 214.752 133.249C212.251 133.229 210.091 133.657 209.841 134.22C209.591 134.783 209.113 136.066 208.795 137.387C208.363 139.33 203.793 146.266 201.178 149.899C200.336 148.481 199.609 147.237 199.449 146.247C199.222 144.751 198.949 143.837 199.222 142.05C199.495 140.262 200.723 137.717 200.7 137.523C200.677 137.329 200.427 136.415 197.926 136.396C195.424 136.377 193.264 136.804 193.014 137.367C192.764 137.931 192.491 139.252 191.969 140.535C191.445 141.817 185.374 153.397 183.783 156.389C183.139 157.6 182.465 158.798 181.759 159.983C181.759 159.983 181.736 160.042 181.668 160.139C181.446 160.51 181.219 160.88 180.986 161.246V161.265C180.645 161.79 180.281 162.276 180.099 162.276C179.963 162.276 179.712 160.877 180.144 158.973C181.054 154.951 183.214 148.695 183.192 148.481C183.192 148.365 183.601 147.277 181.782 146.713C180.008 146.15 179.372 147.082 179.212 147.082C179.053 147.082 178.939 147.412 178.939 147.412C178.939 147.412 180.918 140.379 175.165 140.379C171.572 140.379 166.615 143.74 164.159 146.771C161.368 148.069 158.579 149.371 155.792 150.677C154.451 151.318 153.063 151.959 151.767 152.561C151.676 152.484 151.585 152.386 151.494 152.309C144.536 145.955 131.667 141.467 132.212 132.938C132.417 129.829 133.667 121.669 156.929 111.76C176.074 103.697 191.309 105.931 193.947 110.885C197.721 117.958 185.784 131.092 166.001 132.996C158.452 133.715 154.496 131.228 153.495 130.295C152.449 129.324 152.29 129.265 151.903 129.46C151.267 129.752 151.676 130.626 151.903 131.131C152.495 132.452 154.928 134.783 159.043 135.93C162.681 136.94 171.527 137.504 182.236 133.967C194.219 130.004 203.588 118.987 200.837 109.759C198.085 100.394 179.894 97.3045 162.681 102.531C152.449 105.64 141.353 110.536 133.372 116.909C123.89 124.486 122.389 131.072 123.003 133.832C125.209 143.624 141.012 149.997 147.333 154.718C147.015 154.873 146.719 155.01 146.469 155.126C143.308 156.467 131.257 161.848 128.256 167.541C124.845 173.992 128.802 178.616 131.416 179.237C139.534 181.161 147.879 177.703 152.358 171.99C156.838 166.278 156.292 158.856 154.223 155.456C154.2 155.417 154.178 155.378 154.132 155.34C154.95 154.932 155.792 154.504 156.61 154.096C158.115 153.336 159.639 152.604 161.181 151.9C160.408 153.707 159.839 155.864 159.566 158.973C159.225 162.626 160.976 167.366 163.272 169.231C164.296 170.048 165.501 170.067 166.274 170.067C168.957 170.067 170.163 168.163 171.504 165.909C173.141 163.15 174.619 159.945 174.619 159.945C174.619 159.945 172.777 168.61 177.78 168.61C179.599 168.61 181.441 166.589 182.259 165.56V165.579C182.259 165.579 182.305 165.52 182.396 165.385C182.578 165.132 182.691 164.976 182.691 164.976V164.938C183.419 163.85 185.056 161.382 187.489 157.282C190.627 151.998 193.651 145.392 193.651 145.392C193.651 145.392 193.924 147.005 194.856 149.686C195.402 151.26 196.539 152.989 197.449 154.66C196.721 155.534 196.266 156.02 196.266 156.02L196.289 156.039C195.697 156.7 195.061 157.418 194.356 158.118C191.877 160.644 188.922 163.539 188.512 164.374C188.034 165.365 188.148 166.084 189.058 166.667C189.718 167.095 190.9 167.152 192.105 167.095C194.334 166.958 195.902 166.492 196.675 166.201C197.881 165.832 199.29 165.268 200.609 164.432C203.042 162.897 204.52 160.702 204.384 157.807C204.315 156.214 203.701 154.621 202.951 153.125C203.179 152.853 203.383 152.581 203.611 152.309C207.453 147.51 210.432 142.244 210.432 142.244C210.432 142.244 210.705 143.857 211.637 146.538C212.092 147.898 213.024 149.375 213.843 150.812C210.227 153.319 207.999 156.233 207.203 158.137C205.771 161.674 206.885 163.267 209 163.636C209.954 163.811 211.319 163.422 212.319 163.053C213.593 162.703 215.093 162.101 216.526 161.207C218.959 159.672 221.301 157.535 221.164 154.64C221.096 153.319 220.687 152.017 220.119 150.754C223.188 149.667 227.145 149.064 232.192 149.569C243.016 150.657 245.154 156.427 244.744 158.857C244.335 161.285 242.061 162.606 241.311 163.014C240.56 163.422 240.31 163.558 240.379 163.85C240.469 164.277 240.833 164.258 241.47 164.18C242.357 164.044 247.155 162.217 247.359 157.749C247.7 152.037 241.333 145.8 230.078 145.858V145.858ZM146.583 169.912C142.99 173.253 137.988 174.516 135.828 173.448C133.508 172.301 134.418 167.366 138.829 163.83C141.512 161.674 144.968 159.672 147.265 158.448C147.788 158.176 148.561 157.788 149.493 157.302C149.652 157.224 149.744 157.185 149.744 157.185L150.289 156.894C151.903 161.945 150.357 166.395 146.583 169.912V169.912ZM172.732 154.718C171.481 157.322 168.866 163.986 167.275 163.617C165.91 163.306 165.069 158.254 167.002 153.261C167.979 150.754 170.049 147.762 171.254 146.597C173.209 144.731 175.37 144.109 175.892 144.867C176.552 145.858 173.505 153.086 172.732 154.718V154.718ZM194.311 163.539C193.787 163.772 193.288 163.927 193.06 163.811C192.901 163.733 193.288 163.422 193.288 163.422C193.288 163.422 195.993 160.935 197.062 159.808C197.676 159.148 198.403 158.371 199.177 157.496V157.749C199.177 160.722 195.811 162.723 194.31 163.539H194.311ZM210.955 160.294C210.568 160.061 210.637 159.284 211.933 156.855C212.433 155.903 213.615 154.31 215.639 152.775C215.866 153.397 216.026 153.999 216.003 154.562C215.98 158.312 212.843 159.711 210.955 160.294Z" fill="#CD6799"/>
<path d="M122.883 217H216.508V297H122.883V217Z" fill="#F7DF1E"/>
<path d="M147.501 269.126L154.665 265.421C156.048 267.515 157.305 269.287 160.321 269.287C163.212 269.287 165.035 268.321 165.035 264.562V239H173.834V264.668C173.834 272.455 168.492 275.999 160.698 275.999C153.66 275.999 149.574 272.884 147.5 269.125" fill="black"/>
<path d="M178.613 267.75L185.776 264.206C187.662 266.838 190.113 268.771 194.449 268.771C198.095 268.771 200.42 267.213 200.42 265.065C200.42 262.488 198.032 261.575 194.009 260.072L191.81 259.265C185.463 256.957 181.252 254.057 181.252 247.935C181.252 242.296 186.28 238 194.136 238C199.729 238 203.751 239.665 206.642 244.015L199.791 247.774C198.283 245.465 196.649 244.552 194.135 244.552C191.558 244.552 189.924 245.948 189.924 247.774C189.924 250.029 191.558 250.943 195.329 252.339L197.528 253.144C205.008 255.883 209.218 258.676 209.218 264.958C209.218 271.725 202.996 275.43 194.638 275.43C186.468 275.43 181.189 272.101 178.612 267.751" fill="black"/>
<path d="M174.649 79.7978L147.63 73.3885L141.608 15.6821H207.771L201.743 73.3796L174.649 79.7978V79.7978Z" fill="#264DE4"/>
<path d="M196.583 69.7057L201.734 20.4004H174.69V74.8919L196.583 69.7057V69.7057Z" fill="#2965F1"/>
<path d="M155.412 41.8032L156.154 48.8807H174.69V41.8032H155.412Z" fill="#EBEBEB"/>
<path d="M153.92 27.478L154.673 34.5555H174.69V27.478H153.92V27.478Z" fill="#EBEBEB"/>
<path d="M174.69 60.1841L174.653 60.1923L165.429 58.064L164.839 52.4194H156.524L157.685 63.5321L174.651 67.5565L174.69 67.5476V60.1841Z" fill="#EBEBEB"/>
<path d="M157.179 0H167.211V3.58471H161.375V7.16942H167.211V10.7539H157.179V0Z" fill="black"/>
<path d="M169.218 0H179.249V3.11712H173.413V3.7405H179.249V10.9099H169.218V7.63656H175.054V7.01318H169.217V0H169.218Z" fill="black"/>
<path d="M181.256 0H191.288V3.11712H185.451V3.7405H191.288V10.9099H181.256V7.63656H187.093V7.01318H181.256V0H181.256Z" fill="black"/>
<path d="M193.914 41.8029L195.41 27.478H174.661V34.5555H186.332L185.579 41.8029H174.661V48.8804H184.86L183.899 58.0593L174.661 60.1898V67.5529L191.641 63.5319L191.766 62.3361L193.712 43.7034L193.914 41.8029V41.8029Z" fill="white"/>
<path d="M87.2284 112.682L81.2008 170.38L54.1066 176.798L27.087 170.389L21.0657 112.682H87.2284Z" fill="#E44D26"/>
<path d="M54.147 171.892L76.0406 166.706L81.1912 117.4H54.147V171.892Z" fill="#F16529"/>
<path d="M42.4296 131.555H54.147V124.478H33.3775L33.5757 126.377L35.6116 145.88H54.147V138.803H43.1867L42.4296 131.555V131.555Z" fill="#EBEBEB"/>
<path d="M44.2964 149.419H35.9817L37.142 160.532L54.1089 164.556L54.1471 164.548V157.184L54.1108 157.192L44.8862 155.064L44.2964 149.419V149.419Z" fill="#EBEBEB"/>
<path d="M27.2213 97H31.4306V100.553H35.2812V97H39.4907V107.761H35.2814V104.157H31.4308V107.761H27.2216V97H27.2213Z" fill="black"/>
<path d="M45.0257 100.569H41.3206V97H52.9431V100.569H49.2357V107.761H45.0265V100.569H45.0262H45.0257Z" fill="black"/>
<path d="M54.7876 97H59.1766L61.8764 100.781L64.5737 97H68.9645V107.761H64.7723V102.427L61.8764 106.253H61.8038L58.9061 102.427V107.761H54.7876V97Z" fill="black"/>
<path d="M71.0592 97H75.2698V104.204H81.1892V107.761H71.059V97H71.0592Z" fill="black"/>
<path d="M54.1185 145.881H64.318L63.3563 155.06L54.1183 157.19V164.553L71.0987 160.532L71.2231 159.336L73.1698 140.704L73.3719 138.803H54.1185V145.881Z" fill="white"/>
<path d="M54.1185 131.538V131.555H74.1255L74.2915 129.965L74.6691 126.377L74.867 124.478H54.1185V131.538V131.538Z" fill="white"/>
<g clip-path="url(#clip0_119_3)">
<path d="M44.8654 80.0002C53.479 80.0002 60.4696 74.0268 60.4696 66.6668V53.3335H44.8654C36.2519 53.3335 29.2612 59.3068 29.2612 66.6668C29.2612 74.0268 36.2519 80.0002 44.8654 80.0002Z" fill="#0ACF83"/>
<path d="M29.2612 39.9998C29.2612 32.6398 36.2519 26.6665 44.8654 26.6665H60.4696V53.3332H44.8654C36.2519 53.3332 29.2612 47.3598 29.2612 39.9998Z" fill="#A259FF"/>
<path d="M29.2612 13.3333C29.2612 5.97333 36.2519 0 44.8654 0H60.4696V26.6667H44.8654C36.2519 26.6667 29.2612 20.6933 29.2612 13.3333Z" fill="#F24E1E"/>
<path d="M60.4702 0H76.0744C84.6879 0 91.6786 5.97333 91.6786 13.3333C91.6786 20.6933 84.6879 26.6667 76.0744 26.6667H60.4702V0Z" fill="#FF7262"/>
<path d="M91.6786 39.9998C91.6786 47.3598 84.6879 53.3332 76.0744 53.3332C67.4609 53.3332 60.4702 47.3598 60.4702 39.9998C60.4702 32.6398 67.4609 26.6665 76.0744 26.6665C84.6879 26.6665 91.6786 32.6398 91.6786 39.9998Z" fill="#1ABCFE"/>
</g>
<path d="M142.607 348.903C141.489 348.575 140.36 348.271 139.224 347.992C139.415 347.325 139.59 346.667 139.746 346.02C142.308 335.395 140.633 326.835 134.914 324.017C129.43 321.315 120.461 324.132 111.403 330.868C110.51 331.533 109.637 332.217 108.785 332.92C108.215 332.453 107.634 331.994 107.044 331.546C97.5506 324.343 88.0353 321.308 82.3217 324.134C76.8425 326.845 75.2201 334.891 77.5262 344.961C77.7557 345.958 78.0147 346.95 78.3032 347.936C76.9563 348.263 75.6566 348.611 74.4128 348.982C63.2829 352.297 56.1752 357.494 56.1752 362.883C56.1752 368.45 63.8056 374.034 75.3979 377.419C76.3377 377.693 77.2854 377.946 78.2399 378.179C77.9299 379.241 77.6547 380.31 77.4146 381.385C75.216 391.28 76.9329 399.136 82.3972 401.829C88.041 404.61 97.5136 401.752 106.737 394.863C107.485 394.303 108.216 393.727 108.931 393.135C109.853 393.896 110.801 394.635 111.772 395.351C120.707 401.92 129.531 404.573 134.99 401.872C140.628 399.083 142.461 390.643 140.081 380.375C139.894 379.57 139.684 378.77 139.451 377.974C140.116 377.806 140.769 377.632 141.406 377.452C153.457 374.04 161.298 368.524 161.298 362.883C161.298 357.474 153.961 352.243 142.607 348.903V348.903ZM139.994 373.81C139.419 373.972 138.829 374.129 138.228 374.282C136.897 370.683 135.102 366.856 132.905 362.902C135.001 359.042 136.728 355.264 138.021 351.689C139.096 351.955 140.14 352.235 141.146 352.531C150.874 355.393 156.808 359.623 156.808 362.883C156.808 366.356 150.399 370.863 139.994 373.81V373.81ZM135.676 381.12C136.728 385.66 136.878 389.766 136.181 392.975C135.555 395.859 134.296 397.781 132.739 398.552C129.427 400.19 122.342 398.06 114.701 392.442C113.798 391.777 112.917 391.09 112.058 390.382C115.02 387.614 117.981 384.396 120.87 380.822C125.952 380.437 130.753 379.807 135.107 378.947C135.321 379.686 135.512 380.411 135.676 381.12V381.12ZM92.0139 398.268C88.7773 399.245 86.1993 399.273 84.6409 398.505C81.3251 396.871 79.9465 390.563 81.8268 382.101C82.0504 381.101 82.3063 380.107 82.5943 379.119C86.9003 379.933 91.6665 380.518 96.7605 380.871C99.6694 384.368 102.715 387.583 105.785 390.397C105.132 390.937 104.465 391.462 103.782 391.974C99.7031 395.02 95.616 397.181 92.0139 398.268V398.268ZM76.8507 373.788C71.7248 372.291 67.4915 370.346 64.5899 368.222C61.9824 366.315 60.6663 364.42 60.6663 362.883C60.6663 359.613 66.3729 355.441 75.8911 352.605C77.0462 352.261 78.2551 351.937 79.5096 351.632C80.8253 355.288 82.5508 359.111 84.6331 362.977C82.5237 366.9 80.7736 370.783 79.4452 374.483C78.5738 374.269 77.7088 374.038 76.8507 373.788V373.788ZM81.9336 344.223C79.958 335.596 81.27 329.089 84.572 327.455C88.0887 325.716 95.8653 328.196 104.062 334.415C104.597 334.821 105.122 335.236 105.639 335.659C102.585 338.461 99.5672 341.652 96.6841 345.128C91.74 345.52 87.0074 346.149 82.6563 346.991C82.3883 346.074 82.1473 345.151 81.9336 344.224V344.223ZM127.279 353.791C126.251 352.274 125.185 350.777 124.082 349.299C127.436 349.661 130.65 350.142 133.668 350.73C132.762 353.212 131.633 355.806 130.303 358.466C129.332 356.89 128.323 355.332 127.279 353.791V353.791ZM108.787 338.401C110.858 340.319 112.933 342.46 114.973 344.782C110.834 344.615 106.688 344.615 102.549 344.78C104.591 342.479 106.684 340.341 108.787 338.401ZM90.1767 353.817C89.1454 355.346 88.1559 356.895 87.2091 358.462C85.9016 355.812 84.7826 353.206 83.8689 350.69C86.8682 350.116 90.0667 349.648 93.3994 349.292C92.2839 350.779 91.2094 352.287 90.1767 353.817V353.817ZM93.4951 376.748C90.0519 376.42 86.8054 375.975 83.8069 375.417C84.735 372.856 85.8786 370.194 87.2144 367.487C88.165 369.056 89.1586 370.606 90.1944 372.135C91.2596 373.707 92.3626 375.247 93.4951 376.748ZM108.911 387.636C106.783 385.674 104.66 383.503 102.586 381.168C104.599 381.235 106.651 381.27 108.737 381.27C110.879 381.27 112.997 381.229 115.082 381.149C113.035 383.526 110.969 385.7 108.911 387.636ZM130.346 367.349C131.751 370.086 132.935 372.733 133.876 375.251C130.828 375.845 127.537 376.324 124.07 376.679C125.181 375.174 126.257 373.65 127.297 372.109C128.354 370.542 129.371 368.955 130.346 367.349V367.349ZM123.407 370.192C121.814 372.555 120.132 374.874 118.364 377.144C115.16 377.338 111.949 377.434 108.737 377.433C105.465 377.433 102.283 377.346 99.219 377.176C97.4041 374.911 95.6901 372.588 94.0807 370.213H94.0811C92.4793 367.849 90.9831 365.435 89.5957 362.975C90.9795 360.514 92.4712 358.099 94.0675 355.734L94.0671 355.734C95.6629 353.369 97.3632 351.056 99.1644 348.801C102.291 348.599 105.496 348.493 108.736 348.493H108.737C111.991 348.493 115.201 348.6 118.327 348.803C120.11 351.055 121.799 353.36 123.392 355.714C124.994 358.073 126.505 360.477 127.924 362.921C126.52 365.389 125.013 367.814 123.407 370.192V370.192ZM132.671 327.341C136.191 329.076 137.56 336.071 135.348 345.245C135.207 345.83 135.048 346.426 134.876 347.031C130.514 346.17 125.778 345.531 120.82 345.133C117.931 341.619 114.938 338.423 111.934 335.657C112.721 335.008 113.527 334.376 114.351 333.762C122.112 327.991 129.366 325.713 132.671 327.341V327.341ZM108.737 354.862C113.921 354.862 118.124 358.454 118.124 362.883C118.124 367.313 113.921 370.905 108.737 370.905C103.552 370.905 99.3496 367.313 99.3496 362.883C99.3496 358.454 103.552 354.862 108.737 354.862V354.862Z" fill="#00D8FF"/>
<path d="M0 286.685C0 292.382 5.40503 297 12.0722 297H81.5527C88.221 297 93.6253 292.382 93.6253 286.685V227.316C93.6253 221.618 88.2202 217 81.5531 217H12.0725C5.4043 217 0 221.618 0 227.315V286.684V286.685Z" fill="#563D7C"/>
<path d="M38.8245 252.606V241.277H50.4951C51.6069 241.277 52.6785 241.356 53.7105 241.514C54.7426 241.672 55.6558 241.955 56.4498 242.362C57.2434 242.769 57.8787 243.334 58.3552 244.058C58.8314 244.782 59.0699 245.709 59.0699 246.839C59.0699 248.874 58.3552 250.344 56.926 251.249C55.4971 252.153 53.671 252.606 51.4478 252.606H38.8245V252.606ZM26.3595 233V281.438H53.8298C56.3704 281.438 58.8449 281.166 61.2532 280.623C63.6615 280.081 65.805 279.244 67.6841 278.113C69.5628 276.983 71.0583 275.524 72.1697 273.738C73.2815 271.951 73.837 269.837 73.837 267.395C73.837 264.364 72.9769 261.775 71.2569 259.627C69.5365 257.479 66.9296 255.975 63.4362 255.116C65.9769 254.076 67.8959 252.741 69.1927 251.113C70.4892 249.485 71.1376 247.45 71.1376 245.008C71.1376 242.746 70.701 240.847 69.8276 239.309C68.9543 237.772 67.7236 236.539 66.1356 235.612C64.548 234.685 62.6426 234.017 60.4194 233.611C58.1965 233.203 55.7352 233 53.0358 233H26.3595V233ZM38.8245 273.161V259.864H52.4005C55.0999 259.864 57.2701 260.396 58.9111 261.459C60.5518 262.522 61.3724 264.297 61.3724 266.784C61.3724 268.051 61.1208 269.091 60.618 269.905C60.1151 270.719 59.4403 271.363 58.5933 271.838C57.7467 272.313 56.7673 272.652 55.6558 272.856C54.544 273.059 53.3799 273.161 52.1624 273.161H38.8245V273.161Z" fill="white"/>
<defs>
<clipPath id="clip0_119_3">
<rect width="62.4246" height="80" fill="white" transform="translate(29.2579)"/>
</clipPath>
</defs>
</svg>
