<svg width="257" height="378" viewBox="0 0 257 378" fill="none" xmlns="http://www.w3.org/2000/svg">
<path d="M239.078 243.858C234.735 243.877 230.96 244.771 227.8 246.092C226.64 244.13 225.48 242.382 225.276 241.099C225.048 239.603 224.776 238.69 225.048 236.902C225.321 235.115 226.549 232.57 226.526 232.375C226.504 232.181 226.253 231.268 223.752 231.249C221.251 231.229 219.091 231.657 218.841 232.22C218.591 232.783 218.113 234.066 217.795 235.387C217.363 237.33 212.793 244.266 210.178 247.899C209.336 246.481 208.609 245.237 208.449 244.247C208.222 242.751 207.949 241.837 208.222 240.05C208.495 238.262 209.723 235.717 209.7 235.523C209.677 235.329 209.427 234.415 206.926 234.396C204.424 234.377 202.264 234.804 202.014 235.367C201.764 235.931 201.491 237.252 200.969 238.535C200.445 239.817 194.374 251.397 192.783 254.389C192.139 255.6 191.465 256.798 190.759 257.983C190.759 257.983 190.736 258.042 190.668 258.139C190.446 258.51 190.219 258.88 189.986 259.246V259.265C189.645 259.79 189.281 260.276 189.099 260.276C188.963 260.276 188.712 258.877 189.144 256.973C190.054 252.951 192.214 246.695 192.192 246.481C192.192 246.365 192.601 245.277 190.782 244.713C189.008 244.15 188.372 245.082 188.212 245.082C188.053 245.082 187.939 245.412 187.939 245.412C187.939 245.412 189.918 238.379 184.165 238.379C180.572 238.379 175.615 241.74 173.159 244.771C170.368 246.069 167.579 247.371 164.792 248.677C163.451 249.318 162.063 249.959 160.767 250.561C160.676 250.484 160.585 250.386 160.494 250.309C153.536 243.955 140.667 239.467 141.212 230.938C141.417 227.829 142.667 219.669 165.929 209.76C185.074 201.697 200.309 203.931 202.947 208.885C206.721 215.958 194.784 229.092 175.001 230.996C167.452 231.715 163.496 229.228 162.495 228.295C161.449 227.324 161.29 227.265 160.903 227.46C160.267 227.752 160.676 228.626 160.903 229.131C161.495 230.452 163.928 232.783 168.043 233.93C171.681 234.94 180.527 235.504 191.236 231.967C203.219 228.004 212.588 216.987 209.837 207.759C207.085 198.394 188.894 195.305 171.681 200.531C161.449 203.64 150.353 208.536 142.372 214.909C132.89 222.486 131.389 229.072 132.003 231.832C134.209 241.624 150.012 247.997 156.333 252.718C156.015 252.873 155.719 253.01 155.469 253.126C152.308 254.467 140.257 259.848 137.256 265.541C133.845 271.992 137.802 276.616 140.416 277.237C148.534 279.161 156.879 275.703 161.358 269.99C165.838 264.278 165.292 256.856 163.223 253.456C163.2 253.417 163.178 253.378 163.132 253.34C163.95 252.932 164.792 252.504 165.61 252.096C167.115 251.336 168.639 250.604 170.181 249.9C169.408 251.707 168.839 253.864 168.566 256.973C168.225 260.626 169.976 265.366 172.272 267.231C173.296 268.048 174.501 268.067 175.274 268.067C177.957 268.067 179.163 266.163 180.504 263.909C182.141 261.15 183.619 257.945 183.619 257.945C183.619 257.945 181.777 266.61 186.78 266.61C188.599 266.61 190.441 264.589 191.259 263.56V263.579C191.259 263.579 191.305 263.52 191.396 263.385C191.578 263.132 191.691 262.976 191.691 262.976V262.938C192.419 261.85 194.056 259.382 196.489 255.282C199.627 249.998 202.651 243.392 202.651 243.392C202.651 243.392 202.924 245.005 203.856 247.686C204.402 249.26 205.539 250.989 206.449 252.66C205.721 253.534 205.266 254.02 205.266 254.02L205.289 254.039C204.697 254.7 204.061 255.418 203.356 256.118C200.877 258.644 197.922 261.539 197.512 262.374C197.034 263.365 197.148 264.084 198.058 264.667C198.718 265.095 199.9 265.152 201.105 265.095C203.334 264.958 204.902 264.492 205.675 264.201C206.881 263.832 208.29 263.268 209.609 262.432C212.042 260.897 213.52 258.702 213.384 255.807C213.315 254.214 212.701 252.621 211.951 251.125C212.179 250.853 212.383 250.581 212.611 250.309C216.453 245.51 219.432 240.244 219.432 240.244C219.432 240.244 219.705 241.857 220.637 244.538C221.092 245.898 222.024 247.375 222.843 248.812C219.227 251.319 216.999 254.233 216.203 256.137C214.771 259.674 215.885 261.267 218 261.636C218.954 261.811 220.319 261.422 221.319 261.053C222.593 260.703 224.093 260.101 225.526 259.207C227.959 257.672 230.301 255.535 230.164 252.64C230.096 251.319 229.687 250.017 229.119 248.754C232.188 247.667 236.145 247.064 241.192 247.569C252.016 248.657 254.154 254.427 253.744 256.857C253.335 259.285 251.061 260.606 250.311 261.014C249.56 261.422 249.31 261.558 249.379 261.85C249.469 262.277 249.833 262.258 250.47 262.18C251.357 262.044 256.155 260.217 256.359 255.749C256.7 250.037 250.333 243.8 239.078 243.858V243.858ZM155.583 267.912C151.99 271.253 146.988 272.516 144.828 271.448C142.508 270.301 143.418 265.366 147.829 261.83C150.512 259.674 153.968 257.672 156.265 256.448C156.788 256.176 157.561 255.788 158.493 255.302C158.652 255.224 158.744 255.185 158.744 255.185L159.289 254.894C160.903 259.945 159.357 264.395 155.583 267.912V267.912ZM181.732 252.718C180.481 255.322 177.866 261.986 176.275 261.617C174.91 261.306 174.069 256.254 176.002 251.261C176.979 248.754 179.049 245.762 180.254 244.597C182.209 242.731 184.37 242.109 184.892 242.867C185.552 243.858 182.505 251.086 181.732 252.718V252.718ZM203.311 261.539C202.787 261.772 202.288 261.927 202.06 261.811C201.901 261.733 202.288 261.422 202.288 261.422C202.288 261.422 204.993 258.935 206.062 257.808C206.676 257.148 207.403 256.371 208.177 255.496V255.749C208.177 258.722 204.811 260.723 203.31 261.539H203.311ZM219.955 258.294C219.568 258.061 219.637 257.284 220.933 254.855C221.433 253.903 222.615 252.31 224.639 250.775C224.866 251.397 225.026 251.999 225.003 252.562C224.98 256.312 221.843 257.711 219.955 258.294Z" fill="#CD6799"/>
<path d="M162 298H255.625V378H162V298Z" fill="#F7DF1E"/>
<path d="M186.618 350.126L193.782 346.421C195.165 348.515 196.422 350.287 199.438 350.287C202.329 350.287 204.152 349.321 204.152 345.562V320H212.95V345.668C212.95 353.455 207.609 356.999 199.815 356.999C192.777 356.999 188.691 353.884 186.617 350.125" fill="black"/>
<path d="M217.729 348.75L224.893 345.206C226.779 347.838 229.23 349.771 233.566 349.771C237.212 349.771 239.537 348.213 239.537 346.065C239.537 343.488 237.149 342.575 233.126 341.072L230.927 340.265C224.579 337.957 220.369 335.057 220.369 328.935C220.369 323.296 225.396 319 233.253 319C238.846 319 242.868 320.665 245.759 325.015L238.908 328.774C237.399 326.465 235.766 325.552 233.252 325.552C230.675 325.552 229.041 326.948 229.041 328.774C229.041 331.029 230.675 331.943 234.446 333.339L236.645 334.144C244.124 336.883 248.335 339.676 248.335 345.958C248.335 352.725 242.113 356.43 233.755 356.43C225.585 356.43 220.306 353.101 217.729 348.751" fill="black"/>
<path d="M223.041 177.798L196.021 171.389L190 113.682H256.163L250.135 171.38L223.041 177.798V177.798Z" fill="#264DE4"/>
<path d="M244.975 167.706L250.126 118.4H223.081V172.892L244.975 167.706V167.706Z" fill="#2965F1"/>
<path d="M203.804 139.803L204.546 146.881H223.081V139.803H203.804Z" fill="#EBEBEB"/>
<path d="M202.312 125.478L203.065 132.555H223.081V125.478H202.312V125.478Z" fill="#EBEBEB"/>
<path d="M223.081 158.184L223.045 158.192L213.82 156.064L213.231 150.419H204.916L206.076 161.532L223.043 165.556L223.081 165.548V158.184Z" fill="#EBEBEB"/>
<path d="M205.571 98H215.603V101.585H209.766V105.169H215.603V108.754H205.571V98Z" fill="black"/>
<path d="M217.609 98H227.641V101.117H221.805V101.74H227.641V108.91H217.61V105.637H223.446V105.013H217.609V98H217.609Z" fill="black"/>
<path d="M229.648 98H239.68V101.117H233.843V101.74H239.68V108.91H229.648V105.637H235.484V105.013H229.648V98H229.648Z" fill="black"/>
<path d="M242.306 139.803L243.801 125.478H223.053V132.555H234.724L233.97 139.803H223.053V146.88H233.252L232.291 156.059L223.053 158.19V165.553L240.033 161.532L240.157 160.336L242.104 141.703L242.306 139.803V139.803Z" fill="white"/>
<path d="M66.1627 213.682L60.1352 271.38L33.0409 277.798L6.02132 271.389L0 213.682H66.1627Z" fill="#E44D26"/>
<path d="M33.0814 272.892L54.9749 267.706L60.1256 218.4H33.0814V272.892Z" fill="#F16529"/>
<path d="M21.364 232.555H33.0814V225.478H12.3119L12.51 227.377L14.5459 246.88H33.0814V239.803H22.121L21.364 232.555V232.555Z" fill="#EBEBEB"/>
<path d="M23.2308 250.419H14.916L16.0763 261.532L33.0433 265.556L33.0814 265.548V258.184L33.0451 258.192L23.8205 256.064L23.2308 250.419V250.419Z" fill="#EBEBEB"/>
<path d="M6.15564 198H10.3649V201.553H14.2155V198H18.425V208.761H14.2157V205.157H10.3651V208.761H6.1559V198H6.15564Z" fill="black"/>
<path d="M23.96 201.569H20.2549V198H31.8774V201.569H28.17V208.761H23.9608V201.569H23.9605H23.96Z" fill="black"/>
<path d="M33.722 198H38.1109L40.8108 201.781L43.508 198H47.8988V208.761H43.7067V203.427L40.8108 207.253H40.7381L37.8404 203.427V208.761H33.722V198Z" fill="black"/>
<path d="M49.9935 198H54.2041V205.204H60.1235V208.761H49.9933V198H49.9935Z" fill="black"/>
<path d="M33.0528 246.881H43.2523L42.2906 256.06L33.0526 258.19V265.553L50.033 261.532L50.1575 260.336L52.1042 241.704L52.3062 239.803H33.0528V246.881Z" fill="white"/>
<path d="M33.0529 232.538V232.555H53.0599L53.2259 230.965L53.6035 227.377L53.8014 225.478H33.0529V232.538V232.538Z" fill="white"/>
<g clip-path="url(#clip0_120_4)">
<path d="M15.6076 178C24.2211 178 31.2118 172.027 31.2118 164.667V151.333H15.6076C6.99404 151.333 0.00335693 157.307 0.00335693 164.667C0.00335693 172.027 6.99404 178 15.6076 178Z" fill="#0ACF83"/>
<path d="M0.00335693 138C0.00335693 130.64 6.99404 124.667 15.6076 124.667H31.2118V151.333H15.6076C6.99404 151.333 0.00335693 145.36 0.00335693 138Z" fill="#A259FF"/>
<path d="M0.00335693 111.333C0.00335693 103.973 6.99404 98 15.6076 98H31.2118V124.667H15.6076C6.99404 124.667 0.00335693 118.693 0.00335693 111.333Z" fill="#F24E1E"/>
<path d="M31.2123 98H46.8165C55.43 98 62.4207 103.973 62.4207 111.333C62.4207 118.693 55.43 124.667 46.8165 124.667H31.2123V98Z" fill="#FF7262"/>
<path d="M62.4207 138C62.4207 145.36 55.43 151.333 46.8165 151.333C38.203 151.333 31.2123 145.36 31.2123 138C31.2123 130.64 38.203 124.667 46.8165 124.667C55.43 124.667 62.4207 130.64 62.4207 138Z" fill="#1ABCFE"/>
</g>
<path d="M165.432 25.9031C164.313 25.5751 163.185 25.2713 162.048 24.9919C162.239 24.3252 162.415 23.6666 162.571 23.0196C165.133 12.3947 163.458 3.83503 157.738 1.01678C152.254 -1.68497 143.286 1.13222 134.228 7.86801C133.335 8.53304 132.462 9.21723 131.61 9.91994C131.039 9.45266 130.459 8.99446 129.868 8.54555C120.375 1.34345 110.86 -1.69199 105.146 1.13432C99.6674 3.8445 98.0449 11.8912 100.351 21.9606C100.581 22.9579 100.84 23.9501 101.128 24.9361C99.7811 25.2631 98.4814 25.6112 97.2376 25.9817C86.1077 29.2975 79 34.4936 79 39.8834C79 45.4501 86.6305 51.0336 98.2227 54.4192C99.1626 54.6926 100.11 54.9459 101.065 55.1789C100.755 56.2409 100.48 57.3101 100.239 58.3852C98.0408 68.2799 99.7577 76.1364 105.222 78.8294C110.866 81.6105 120.338 78.7522 129.562 71.8628C130.31 71.3026 131.041 70.7267 131.755 70.1354C132.678 70.8963 133.626 71.635 134.597 72.3508C143.532 78.9199 152.355 81.5726 157.814 78.8722C163.453 76.0831 165.286 67.6431 162.906 57.3747C162.719 56.5702 162.509 55.7698 162.276 54.974C162.941 54.8056 163.594 54.6322 164.231 54.4519C176.282 51.0403 184.123 45.5245 184.123 39.8834C184.123 34.474 176.786 29.2427 165.432 25.9031V25.9031ZM162.818 50.8098C162.244 50.9722 161.654 51.1291 161.053 51.2817C159.722 47.6827 157.927 43.8561 155.73 39.902C157.826 36.0424 159.553 32.2645 160.846 28.6891C161.921 28.955 162.965 29.2354 163.971 29.5312C173.699 32.3929 179.632 36.6234 179.632 39.8834C179.632 43.3557 173.224 47.8634 162.818 50.8098V50.8098ZM158.501 58.1199C159.553 62.6603 159.703 66.7656 159.006 69.975C158.38 72.8589 157.121 74.7813 155.564 75.5515C152.251 77.1901 145.167 75.0603 137.526 69.442C136.623 68.7766 135.741 68.0897 134.883 67.3824C137.845 64.6143 140.805 61.3964 143.695 57.8224C148.777 57.4371 153.578 56.807 157.932 55.947C158.146 56.6863 158.337 57.4112 158.501 58.1199V58.1199ZM114.839 75.2684C111.602 76.2449 109.024 76.2729 107.466 75.5052C104.15 73.8712 102.771 67.5627 104.652 59.101C104.875 58.1011 105.131 57.1067 105.419 56.1189C109.725 56.9329 114.491 57.5182 119.585 57.8712C122.494 61.3684 125.54 64.5827 128.609 67.3975C127.957 67.9368 127.289 68.4624 126.607 68.9736C122.528 72.0199 118.441 74.1813 114.839 75.2684V75.2684ZM99.6756 50.7884C94.5496 49.2912 90.3163 47.3456 87.4148 45.2224C84.8072 43.3147 83.4911 41.4203 83.4911 39.8834C83.4911 36.6126 89.1978 32.4406 98.7159 29.6052C99.871 29.2613 101.08 28.9368 102.334 28.6322C103.65 32.2884 105.376 36.1112 107.458 39.9768C105.349 43.8996 103.598 47.7834 102.27 51.4827C101.399 51.2695 100.534 51.0379 99.6756 50.7884V50.7884ZM104.758 21.2234C102.783 12.5964 104.095 6.08871 107.397 4.45538C110.913 2.71573 118.69 5.19608 126.887 11.415C127.421 11.8215 127.947 12.2362 128.464 12.6589C125.41 15.4613 122.392 18.6519 119.509 22.1284C114.565 22.5199 109.832 23.1487 105.481 23.9912C105.213 23.074 104.972 22.1513 104.758 21.2238V21.2234ZM150.104 30.7912C149.076 29.2743 148.01 27.7765 146.907 26.2989C150.261 26.6613 153.475 27.1424 156.493 27.7305C155.587 30.2119 154.457 32.8059 153.128 35.4656C152.157 33.8904 151.148 32.3319 150.104 30.7912V30.7912ZM131.612 15.4013C133.683 17.3189 135.758 19.4596 137.798 21.7824C133.659 21.6154 129.513 21.6147 125.374 21.7803C127.416 19.4789 129.508 17.341 131.612 15.4013ZM113.002 30.8175C111.97 32.3458 110.981 33.8946 110.034 35.4624C108.726 32.8122 107.607 30.2063 106.694 27.6898C109.693 27.1164 112.892 26.6477 116.224 26.2919C115.109 27.7785 114.034 29.2874 113.002 30.8171V30.8175ZM116.32 53.748C112.877 53.4196 109.63 52.975 106.632 52.4171C107.56 49.8557 108.703 47.1943 110.039 44.4873C110.99 46.0563 111.983 47.606 113.019 49.135C114.084 50.707 115.187 52.2466 116.32 53.748ZM131.736 64.6357C129.607 62.6736 127.484 60.5028 125.411 58.168C127.424 58.2354 129.476 58.2698 131.562 58.2698C133.704 58.2698 135.822 58.2287 137.907 58.1494C135.86 60.5263 133.793 62.7003 131.736 64.6357ZM153.171 44.3491C154.576 47.0859 155.76 49.7333 156.7 52.2508C153.653 52.8452 150.362 53.3238 146.894 53.6792C148.005 52.1742 149.081 50.6504 150.122 49.1087C151.179 47.5417 152.196 45.9547 153.171 44.3491V44.3491ZM146.232 47.1915C144.639 49.5552 142.957 51.8739 141.189 54.1442C137.985 54.338 134.774 54.4344 131.562 54.4329C128.29 54.4329 125.108 54.3459 122.044 54.1761C120.229 51.9111 118.515 49.5883 116.906 47.2126H116.906C115.304 44.8494 113.808 42.4352 112.421 39.975C113.804 37.5143 115.296 35.0989 116.892 32.734L116.892 32.7343C118.488 30.3688 120.188 28.0559 121.989 25.8006C125.115 25.5985 128.321 25.4933 131.561 25.4933H131.562C134.816 25.4933 138.026 25.5996 141.152 25.8031C142.935 28.055 144.624 30.3599 146.217 32.7136C147.818 35.0733 149.33 37.4769 150.749 39.9206C149.344 42.3893 147.838 44.8145 146.232 47.1915V47.1915ZM155.496 4.34099C159.016 6.07573 160.385 13.0712 158.173 22.2449C158.032 22.8301 157.873 23.4263 157.701 24.0308C153.339 23.1705 148.603 22.5308 143.645 22.1333C140.756 18.6185 137.763 15.4231 134.758 12.6568C135.546 12.0082 136.352 11.3764 137.176 10.762C144.937 4.99117 152.191 2.71257 155.496 4.34099V4.34099ZM131.562 31.8624C136.746 31.8624 140.949 35.4536 140.949 39.8834C140.949 44.3133 136.746 47.9045 131.562 47.9045C126.377 47.9045 122.174 44.3133 122.174 39.8834C122.174 35.4536 126.377 31.8624 131.562 31.8624V31.8624Z" fill="#00D8FF"/>
<path d="M0 367.685C0 373.382 5.40503 378 12.0722 378H81.5527C88.221 378 93.6253 373.382 93.6253 367.685V308.316C93.6253 302.618 88.2202 298 81.5531 298H12.0725C5.4043 298 0 302.618 0 308.315V367.684V367.685Z" fill="#563D7C"/>
<path d="M38.8245 333.606V322.277H50.4951C51.6069 322.277 52.6784 322.356 53.7105 322.514C54.7426 322.672 55.6558 322.955 56.4498 323.362C57.2434 323.769 57.8787 324.334 58.3552 325.058C58.8314 325.782 59.0698 326.709 59.0698 327.839C59.0698 329.874 58.3552 331.344 56.9259 332.249C55.4971 333.153 53.671 333.606 51.4478 333.606H38.8245V333.606ZM26.3595 314V362.438H53.8297C56.3704 362.438 58.8449 362.166 61.2532 361.623C63.6615 361.081 65.805 360.244 67.6841 359.113C69.5628 357.983 71.0582 356.524 72.1697 354.738C73.2815 352.951 73.837 350.837 73.837 348.395C73.837 345.364 72.9768 342.775 71.2568 340.627C69.5365 338.479 66.9296 336.975 63.4362 336.116C65.9769 335.076 67.8958 333.741 69.1927 332.113C70.4892 330.485 71.1376 328.45 71.1376 326.008C71.1376 323.746 70.7009 321.847 69.8276 320.309C68.9542 318.772 67.7236 317.539 66.1356 316.612C64.548 315.685 62.6426 315.017 60.4193 314.611C58.1965 314.203 55.7352 314 53.0357 314H26.3595V314ZM38.8245 354.161V340.864H52.4005C55.0999 340.864 57.2701 341.396 58.9111 342.459C60.5517 343.522 61.3724 345.297 61.3724 347.784C61.3724 349.051 61.1208 350.091 60.6179 350.905C60.1151 351.719 59.4403 352.363 58.5933 352.838C57.7466 353.313 56.7672 353.652 55.6558 353.856C54.544 354.059 53.3799 354.161 52.1624 354.161H38.8245V354.161Z" fill="white"/>
<defs>
<clipPath id="clip0_120_4">
<rect width="62.4246" height="80" fill="white" transform="translate(0 98)"/>
</clipPath>
</defs>
</svg>
